<svg width="60" height="65" fill="none" xmlns="http://www.w3.org/2000/svg"><circle cx="25.5" cy="47.5" r="17.5" fill="#FFD19B"/><path d="M34.315 22.195a.879.879 0 0 0 .878-.879V19.6a.879.879 0 1 0-1.758 0v1.716c0 .486.394.88.88.88zm-1.17 2.523h2.339a.879.879 0 1 0 0-1.758h-2.339a.88.88 0 0 0 0 1.758zm-16.487-2.523a.879.879 0 0 0 .878-.879V19.6a.879.879 0 1 0-1.757 0v1.716c0 .486.393.88.879.88zm-1.17 2.523h2.338a.879.879 0 1 0 0-1.758h-2.338a.879.879 0 1 0 0 1.758zm9.998-.096c.869 0 1.686-.365 2.24-1a.879.879 0 1 0-1.323-1.156 1.21 1.21 0 0 1-.917.398 1.21 1.21 0 0 1-.917-.398.879.879 0 0 0-1.324 1.156c.555.635 1.372 1 2.241 1z" fill="#219653"/><path d="M5.24 23.186c0 5.428 2.15 9.33 6.386 11.597 1.122.6 2.382 1.09 3.806 1.473-.251 1.517-1.006 3.028-1.799 4.614-1.155 2.31-2.464 4.93-2.374 8.045a.879.879 0 0 0 1.757-.05c-.077-2.675 1.075-4.98 2.19-7.208.84-1.68 1.64-3.28 1.944-5.005 1.461.285 3.077.478 4.869.582a60.32 60.32 0 0 0 6.935 0c1.792-.104 3.407-.297 4.868-.582.305 1.725 1.106 3.326 1.945 5.005 1.042 2.082 2.118 4.234 2.19 6.685.014.442-.008.895-.062 1.337-.29 2.364-1.527 4.817-3.753 7.457a3.134 3.134 0 0 1-2.405 1.106h-.62c2.314-4.975 1.644-11.085 1.611-11.366a.879.879 0 1 0-1.746.203c.008.066.721 6.55-1.834 11.163h-2.783V46.978a.88.88 0 0 0-1.758 0v11.264h-2.783c-2.544-4.595-1.844-11.076-1.834-11.164a.878.878 0 1 0-1.746-.202c-.033.281-.703 6.39 1.61 11.366h-.62a3.134 3.134 0 0 1-2.404-1.106c-1.473-1.747-2.53-3.444-3.142-5.044a.878.878 0 1 0-1.642.627c.692 1.81 1.817 3.626 3.44 5.55A4.889 4.889 0 0 0 19.235 60h12.502c1.455 0 2.821-.63 3.749-1.73 1.023-1.214 1.857-2.4 2.507-3.567 2.977-.558 5.245-1.803 6.917-3.8 2.015-2.403 2.729-5.385 3.42-8.269.403-1.687.785-3.28 1.402-4.766a.88.88 0 0 0-1.624-.674c-.67 1.615-1.086 3.351-1.488 5.03-.644 2.687-1.31 5.464-3.057 7.55-1.158 1.383-2.678 2.34-4.618 2.901.313-.825.527-1.642.65-2.459.053-.357.091-.717.11-1.078 2.517-1.45 3.174-4.194 3.993-7.613.55-2.296 1.173-4.898 2.502-7.296 1.51-2.723 3.706-4.77 6.717-6.258a1.517 1.517 0 0 1 2.012.681c.363.735.052 1.65-.682 2.013-1.772.875-3.17 1.966-4.277 3.335a.878.878 0 1 0 1.367 1.105c.943-1.167 2.15-2.104 3.689-2.865 1.581-.781 2.26-2.75 1.491-4.34a.876.876 0 0 1-.012-.026c-.78-1.581-2.752-2.26-4.341-1.492l-.026.013c-3.342 1.651-5.788 3.935-7.476 6.982-1.444 2.607-2.097 5.333-2.674 7.738-.674 2.817-1.137 4.745-2.386 5.924-.336-2.31-1.35-4.344-2.263-6.169-.793-1.586-1.548-3.097-1.8-4.614 1.425-.383 2.685-.873 3.806-1.473 4.237-2.268 6.386-6.17 6.386-11.597 0-2.308-.252-4.49-.744-6.525 3.518-5.52 2.997-11.216 2.36-14.153A3.106 3.106 0 0 0 44.621.082 15 15 0 0 0 43.067 0c-4.566 0-7.501 2.144-8.605 3.125a20.305 20.305 0 0 0-8.976-2.108c-3.128 0-6.217.742-8.976 2.108C15.406 2.144 12.47 0 7.904 0c-.51 0-1.033.027-1.554.082a3.106 3.106 0 0 0-2.724 2.426c-.639 2.937-1.16 8.632 2.359 14.152-.492 2.034-.744 4.217-.744 6.525zM8.565 5.358a8.103 8.103 0 0 1 3.29.977 19.557 19.557 0 0 0-3.009 3.587 14.118 14.118 0 0 1-.28-4.564zm33.562 4.564a19.506 19.506 0 0 0-2.954-3.536c-.018-.017-.036-.035-.055-.051a8.104 8.104 0 0 1 3.29-.977 14.14 14.14 0 0 1-.28 4.564zm.942-8.164c.45 0 .91.024 1.37.072a1.351 1.351 0 0 1 1.19 1.05c.527 2.425.97 6.912-1.331 11.453-.037-.105-.266-.675-.327-.86a21.183 21.183 0 0 0-.645-1.444c1.101-2.98 1.008-5.82.725-7.707a.878.878 0 0 0-.86-.748h-.098c-2.494 0-4.31.85-5.39 1.56a19.212 19.212 0 0 0-1.584-1.097c1.168-.893 3.53-2.28 6.95-2.28zM37.205 6.99c4.72 3.943 6.768 10.192 6.768 16.195 0 4.796-1.785 8.082-5.457 10.047-3.346 1.791-7.322 2.189-11.057 2.31h-3.946c-3.737-.122-7.706-.517-11.057-2.31-3.672-1.965-5.457-5.251-5.457-10.047 0-5.564 1.669-11.185 5.674-15.193 3.351-3.353 8.087-5.218 12.813-5.218 4.29 0 8.498 1.525 11.719 4.216zM5.343 2.88a1.352 1.352 0 0 1 1.19-1.05c.46-.049.921-.073 1.371-.073 3.395 0 5.77 1.39 6.945 2.282-.546.34-1.072.705-1.578 1.094-1.082-.71-2.897-1.56-5.391-1.56h-.097a.878.878 0 0 0-.86.748c-.285 1.888-.377 4.726.724 7.707A21.08 21.08 0 0 0 7 13.48a48.46 48.46 0 0 0-.325.854C4.374 9.794 4.817 5.306 5.343 2.882z" fill="#219653"/></svg>