<svg width="60" height="65" fill="none" xmlns="http://www.w3.org/2000/svg"><circle cx="38" cy="22" r="22" fill="#FFD19B"/><path d="M60 11H14v7H7v7H0v34h46v-7h7v-7h7V11zM44 57H2V27h5v25h37v5zm7-7H9V20h5v25h37v5zm7-7H16V13h42v30z" fill="#219653"/><path d="M34 50a1 1 0 1 0 0-2 1 1 0 0 0 0 2zm3-3a1 1 0 1 0 0-2 1 1 0 0 0 0 2zm3 3a1 1 0 1 0 0-2 1 1 0 0 0 0 2zm6 0a1 1 0 1 0 0-2 1 1 0 0 0 0 2zm-3-3a1 1 0 1 0 0-2 1 1 0 0 0 0 2zm6 0a1 1 0 1 0 0-2 1 1 0 0 0 0 2zm-21 3a1 1 0 1 0 0-2 1 1 0 0 0 0 2zm3-3a1 1 0 1 0 0-2 1 1 0 0 0 0 2zm-21 3a1 1 0 1 0 0-2 1 1 0 0 0 0 2zm0-6a1 1 0 1 0 0-2 1 1 0 0 0 0 2zm3 3a1 1 0 1 0 0-2 1 1 0 0 0 0 2zm0-6a1 1 0 1 0 0-2 1 1 0 0 0 0 2zm3 9a1 1 0 1 0 0-2 1 1 0 0 0 0 2zm6 0a1 1 0 1 0 0-2 1 1 0 0 0 0 2zm-3-3a1 1 0 1 0 0-2 1 1 0 0 0 0 2zm6 0a1 1 0 1 0 0-2 1 1 0 0 0 0 2zm-15-9a1 1 0 1 0 0-2 1 1 0 0 0 0 2zm0-6a1 1 0 1 0 0-2 1 1 0 0 0 0 2zm3 3a1 1 0 1 0 0-2 1 1 0 0 0 0 2zm0-6a1 1 0 1 0 0-2 1 1 0 0 0 0 2zm-3-3a1 1 0 1 0 0-2 1 1 0 0 0 0 2zm3-3a1 1 0 1 0 0-2 1 1 0 0 0 0 2z" fill="#219653"/></svg>