<svg width="86" height="60" fill="none" xmlns="http://www.w3.org/2000/svg"><circle cx="64" cy="30" r="22" fill="#FFD19B"/><path d="M37.031 25.313a1.172 1.172 0 1 0 .001 2.344 1.172 1.172 0 0 0 0-2.345zm0 7.031a1.172 1.172 0 1 0 .001 2.345 1.172 1.172 0 0 0 0-2.345zM8.906 37.031a1.172 1.172 0 1 0 .001 2.345 1.172 1.172 0 0 0 0-2.345z" fill="#219653"/><path d="M59.37 16.07a1.172 1.172 0 0 0-1.213.078l-9.776 6.82h-3.147v-1.171a3.52 3.52 0 0 0-3.515-3.516h-4.356a9.353 9.353 0 0 0 3.184-7.031c0-5.17-4.206-9.375-9.375-9.375-3.526 0-6.603 1.958-8.203 4.843-1.6-2.885-4.677-4.843-8.203-4.843-5.17 0-9.375 4.205-9.375 9.375a9.353 9.353 0 0 0 3.183 7.031H3.516A3.52 3.52 0 0 0 0 21.797V42.89a3.52 3.52 0 0 0 3.516 3.515h6.562v3.516c0 .647.525 1.172 1.172 1.172h3.516v5.86c0 .646.524 1.171 1.171 1.171H30c.647 0 1.172-.525 1.172-1.172v-5.86h3.515a1.17 1.17 0 0 0 1.172-1.171v-3.516h5.86a3.52 3.52 0 0 0 3.515-3.515v-3.516h3.147l9.776 6.82a1.173 1.173 0 0 0 1.843-.96V17.108c0-.436-.243-.836-.63-1.039zM31.172 4.22a7.04 7.04 0 0 1 7.031 7.031 7.039 7.039 0 0 1-7.031 7.031 7.039 7.039 0 0 1-7.031-7.031 7.04 7.04 0 0 1 7.03-7.031zM24.98 18.28h-4.025a9.43 9.43 0 0 0 2.013-2.499 9.437 9.437 0 0 0 2.012 2.5zM7.734 11.25a7.04 7.04 0 0 1 7.032-7.031 7.04 7.04 0 0 1 7.03 7.031 7.039 7.039 0 0 1-7.03 7.031 7.039 7.039 0 0 1-7.032-7.031zm21.094 44.531H17.11v-4.687h11.72v4.687zm4.688-7.031H12.422v-2.344h21.094v2.344zm9.375-5.86c0 .647-.526 1.172-1.172 1.172H3.516a1.173 1.173 0 0 1-1.172-1.171V21.797c0-.646.525-1.172 1.172-1.172h38.203c.646 0 1.172.526 1.172 1.172V42.89zm2.343-17.578h2.344v11.72h-2.344v-11.72zm12.422 17.676l-7.734-5.396v-12.84l7.734-5.396v23.632z" fill="#219653"/><path d="M14.766 7.734a3.52 3.52 0 0 0-3.516 3.516 3.52 3.52 0 0 0 3.516 3.516 3.52 3.52 0 0 0 3.515-3.516 3.52 3.52 0 0 0-3.515-3.516zm0 4.688a1.173 1.173 0 0 1 0-2.344 1.173 1.173 0 0 1 0 2.344zm16.406 2.344a3.52 3.52 0 0 0 3.515-3.516 3.52 3.52 0 0 0-3.515-3.516 3.52 3.52 0 0 0-3.516 3.516 3.52 3.52 0 0 0 3.516 3.516zm0-4.688A1.173 1.173 0 1 1 30 11.25c0-.646.526-1.172 1.172-1.172zm-4.688 23.438v-7.032c0-.647-.524-1.172-1.172-1.172H8.907c-.647 0-1.172.525-1.172 1.172v7.032c0 .647.525 1.172 1.172 1.172h16.407c.647 0 1.171-.525 1.171-1.172zm-2.343-1.172H10.078v-4.688h14.063v4.688zm12.89 4.687H13.594a1.172 1.172 0 1 0 0 2.344H37.03a1.172 1.172 0 1 0 0-2.344z" fill="#219653"/></svg>