<svg width="61" height="73" fill="none" xmlns="http://www.w3.org/2000/svg"><circle cx="38" cy="22" r="22" fill="#FFD19B"/><g clip-path="url(#clip0)"><path fill-rule="evenodd" clip-rule="evenodd" d="M43.125 68.411a6.725 6.725 0 0 1-3.397 3.888 6.712 6.712 0 0 1-4.938.41L9.95 64.327a6.727 6.727 0 0 1-3.888-3.397 6.712 6.712 0 0 1-.345-5.142l9.816-29.07a6.689 6.689 0 0 1 2.662-3.464L30 13.422c.761-.667 2.033-1.167 3.025-1.331a6.73 6.73 0 0 1 3.251.262l8.874 2.977a6.72 6.72 0 0 1 2.942 1.974 6.772 6.772 0 0 1 1.526 3.153l3.427 14.977a6.72 6.72 0 0 1-.121 3.906l-1.563 4.633c1.018.343 2.107.65 3.28.91a1.19 1.19 0 1 1-.515 2.328 34.88 34.88 0 0 1-3.526-.977L43.124 68.41zM23.517 53.66c0-.546-.293-.957-.81-1.132l-6.203-2.087a1.193 1.193 0 0 0-.757 2.261l6.168 2.076c.128.047.267.073.41.073.658 0 1.192-.6 1.192-1.191zm8.06 1.854c-.74-.217-1.528.385-1.528 1.147 0 .532.269.922.766 1.113l.079.027 6.122 2.06a1.193 1.193 0 0 0 .757-2.262l-6.196-2.085zm-4.822-1.532a1.192 1.192 0 1 0 0 2.383 1.192 1.192 0 0 0 0-2.383zm8.364-27.119a1.192 1.192 0 0 1 2.383.047c0 .013-.05 1.492.481 3.618l.107-.051a3.99 3.99 0 0 0 2.017-2.305 4 4 0 0 0-.206-3.065 3.99 3.99 0 0 0-2.305-2.017 3.998 3.998 0 0 0-3.065.207 3.988 3.988 0 0 0-2.016 2.305 4 4 0 0 0 .205 3.064 3.99 3.99 0 0 0 2.896 2.168c-.55-2.339-.497-3.956-.497-3.97zm3.6 5.947c1.369 3.437 4.27 7.61 10.414 10.304l1.528-4.54c.137-.403.216-.823.229-1.248a4.376 4.376 0 0 0-.154-1.274L47.29 20.99a4.376 4.376 0 0 0-1.002-2.124 4.33 4.33 0 0 0-1.896-1.274l-8.874-2.977a4.375 4.375 0 0 0-2.11-.17c-.177.03-1.515.532-1.924.84L19.547 25.22a4.356 4.356 0 0 0-1.753 2.256L7.98 56.544a4.348 4.348 0 0 0 .224 3.329 4.335 4.335 0 0 0 2.504 2.192l24.635 8.317a4.35 4.35 0 0 0 3.33-.223 4.335 4.335 0 0 0 2.19-2.504l7.505-22.269c-7.23-3.093-10.518-8.083-12.011-12.105a6.395 6.395 0 0 1-2.88-12.125 6.395 6.395 0 0 1 8.892 7.772 6.376 6.376 0 0 1-3.65 3.88zm-18.613 6.98l21.27 7.16a1.192 1.192 0 1 0 .757-2.262l-21.27-7.159a1.192 1.192 0 1 0-.757 2.262zm-2.18 6.456l21.27 7.159a1.192 1.192 0 1 0 .757-2.261l-21.27-7.159a1.192 1.192 0 1 0-.756 2.261z" fill="#219653"/></g><defs><clipPath id="clip0"><path fill="#fff" transform="translate(0 12)" d="M0 0h61v61H0z"/></clipPath></defs></svg>