<svg width="64" height="63" fill="none" xmlns="http://www.w3.org/2000/svg"><circle r="22" transform="matrix(-1 0 0 1 42 41)" fill="#FFD19B"/><path d="M5.664 43.727a1.133 1.133 0 1 0-.001-2.267 1.133 1.133 0 0 0 .001 2.267zm0-4.532c.626 0 1.133-.507 1.133-1.133V29a1.133 1.133 0 1 0-2.266 0v9.063c0 .625.507 1.132 1.133 1.132z" fill="#219653"/><path d="M1.133 41.46h1.133v15.407c0 .626.507 1.133 1.132 1.133h51.204A3.402 3.402 0 0 0 58 54.602V12.46c0-.626-.507-1.133-1.133-1.133h-8.61v-1.133C48.258 4.574 43.685 0 38.064 0c-5.611 0-10.196 4.54-10.196 10.195v1.133h-8.61c-.625 0-1.132.507-1.132 1.133v12.01a5.696 5.696 0 0 0-2.152 3.403 1.092 1.092 0 0 0-.114-.007c-.038 0-.075.003-.113.004a5.674 5.674 0 0 0-5.55-4.535A5.67 5.67 0 0 0 4.53 29c0 1.274.423 2.451 1.136 3.398H1.133c-.626 0-1.133.508-1.133 1.133v6.797c0 .626.507 1.133 1.133 1.133zm3.398 0h5.664v14.274H4.531V41.461zm7.93 0h6.797v14.274H12.46V41.461zm14.726 14.274h-5.664V41.461h5.665v14.273zm-5.664-16.539v-4.53h7.93v4.53h-7.93zm0-6.797l-.116-.003a5.623 5.623 0 0 0-1.016-2.262v-4.336A3.402 3.402 0 0 1 24.922 29a3.402 3.402 0 0 1-3.399 3.398zm-5.73-2.265l.981.124a3.41 3.41 0 0 1 2.29 2.141h-6.406a3.4 3.4 0 0 1 3.135-2.265zm3.465 4.531v4.531H12.46v-4.53h6.797zm35.344 21.07H29.453v-4.53h26.281v3.398c0 .624-.508 1.132-1.132 1.132zm-24.47-45.539c0-4.373 3.54-7.93 7.93-7.93 4.373 0 7.93 3.558 7.93 7.93v1.133h-15.86v-1.133zm-2.265 3.399v5.21h-1.133a1.133 1.133 0 1 0 0 2.266h4.532a1.133 1.133 0 1 0 0-2.265h-1.133v-5.211h15.86v5.21h-1.134a1.133 1.133 0 1 0 0 2.266h4.532a1.133 1.133 0 1 0 0-2.265h-1.133v-5.211h7.476v35.343h-26.28v-7.476h1.132c.626 0 1.133-.507 1.133-1.133v-6.797c0-.625-.507-1.133-1.133-1.133h-4.534A5.634 5.634 0 0 0 27.188 29a5.67 5.67 0 0 0-6.797-5.549v-9.857h7.476zM6.797 29a3.402 3.402 0 0 1 3.398-3.398 3.404 3.404 0 0 1 3.339 2.766 5.71 5.71 0 0 0-3.221 4.027c-.04.001-.078.003-.118.003A3.402 3.402 0 0 1 6.797 29zm-4.531 5.664h7.93v4.531h-7.93v-4.53z" fill="#219653"/></svg>