<svg width="60" height="65" viewBox="0 0 60 65" fill="none" xmlns="http://www.w3.org/2000/svg">
<circle cx="25.5" cy="47.5" r="17.5" fill="#FFD19B"/>
<path d="M34.3145 22.1952C34.7997 22.1952 35.1934 21.8019 35.1934 21.3163V19.6001C35.1934 19.1144 34.7997 18.7212 34.3145 18.7212C33.8292 18.7212 33.4355 19.1144 33.4355 19.6001V21.3163C33.4355 21.8019 33.8292 22.1952 34.3145 22.1952Z" fill="#219653"/>
<path d="M33.1453 24.7183H35.4836C35.9688 24.7183 36.3625 24.3251 36.3625 23.8394C36.3625 23.3542 35.9688 22.9605 35.4836 22.9605H33.1453C32.6601 22.9605 32.2664 23.3542 32.2664 23.8394C32.2664 24.3251 32.6601 24.7183 33.1453 24.7183Z" fill="#219653"/>
<path d="M16.6576 22.1952C17.1428 22.1952 17.5365 21.8019 17.5365 21.3163V19.6001C17.5365 19.1144 17.1428 18.7212 16.6576 18.7212C16.1719 18.7212 15.7787 19.1144 15.7787 19.6001V21.3163C15.7787 21.8019 16.1719 22.1952 16.6576 22.1952Z" fill="#219653"/>
<path d="M15.4884 24.7183H17.8262C18.3119 24.7183 18.7051 24.3251 18.7051 23.8394C18.7051 23.3542 18.3119 22.9605 17.8262 22.9605H15.4884C15.0027 22.9605 14.6095 23.3542 14.6095 23.8394C14.6095 24.3251 15.0027 24.7183 15.4884 24.7183Z" fill="#219653"/>
<path d="M25.486 24.6217C26.3548 24.6217 27.172 24.2574 27.7268 23.6225C28.0463 23.2572 28.0092 22.7019 27.6434 22.3824C27.2782 22.0628 26.7229 22.1004 26.4034 22.4657C26.1823 22.7188 25.8476 22.8639 25.486 22.8639C25.1244 22.8639 24.7897 22.7188 24.5687 22.4657C24.2491 22.1004 23.6939 22.0628 23.3286 22.3824C22.9628 22.7019 22.9257 23.2572 23.2453 23.6225C23.8001 24.2574 24.6167 24.6217 25.486 24.6217Z" fill="#219653"/>
<path d="M5.24095 23.1862C5.24095 28.6139 7.38924 32.5154 11.6263 34.7832C12.7483 35.3833 14.008 35.8727 15.4321 36.2563C15.1808 37.7733 14.4264 39.2839 13.6331 40.8705C12.4782 43.1808 11.169 45.7993 11.2587 48.9153C11.2729 49.4005 11.678 49.7827 12.1628 49.7681C12.648 49.7543 13.0298 49.3497 13.0161 48.8644C12.9387 46.1902 14.0909 43.8858 15.2056 41.657C16.0451 39.9779 16.8453 38.3766 17.1501 36.6518C18.6113 36.9365 20.2268 37.1297 22.0189 37.2345C24.3251 37.3691 26.6483 37.3659 28.954 37.2345C30.7462 37.1297 32.3612 36.9365 33.8219 36.6518C34.1268 38.3766 34.9278 39.9779 35.7674 41.657C36.8088 43.7389 37.8855 45.8913 37.9578 48.3421C37.9706 48.7843 37.9486 49.2371 37.8946 49.6793C37.6048 52.0427 36.3684 54.4958 34.1423 57.1358C33.5491 57.8389 32.6729 58.2422 31.7372 58.2422H31.1179C33.431 53.2668 32.7612 47.157 32.7283 46.8764C32.6724 46.3943 32.2362 46.0487 31.7546 46.1046C31.2721 46.1604 30.9265 46.5962 30.9824 47.0787C30.9902 47.1455 31.7034 53.6293 29.1481 58.2422H26.3649V46.9775C26.3649 46.4923 25.9712 46.0986 25.486 46.0986C25.0008 46.0986 24.6071 46.4923 24.6071 46.9775V58.2422H21.8239C19.2796 53.6467 19.98 47.1657 19.9896 47.0782C20.0455 46.5962 19.6999 46.1604 19.2174 46.1046C18.7354 46.0487 18.2991 46.3943 18.2437 46.8764C18.2112 47.157 17.5411 53.2668 19.8541 58.2422H19.2348C18.2996 58.2422 17.423 57.8389 16.8302 57.1358C15.3566 55.3889 14.2996 53.692 13.6876 52.0917C13.5146 51.638 13.0065 51.411 12.5528 51.5845C12.0996 51.7575 11.8726 52.2656 12.0456 52.7193C12.7377 54.5293 13.8634 56.3448 15.4862 58.2692C16.414 59.3692 17.7805 60 19.2348 60H31.7372C33.192 60 34.5584 59.3692 35.4859 58.2692C36.509 57.0561 37.343 55.8701 37.9926 54.7032C40.9699 54.1447 43.2376 52.9001 44.9103 50.9038C46.9245 48.5001 47.6386 45.5182 48.3293 42.6343C48.7331 40.9474 49.1149 39.3539 49.7319 37.8676C49.9178 37.419 49.7054 36.9049 49.2568 36.7186C48.8082 36.5327 48.2941 36.7451 48.1082 37.1938C47.4381 38.8092 47.022 40.5455 46.6196 42.2246C45.9764 44.9107 45.3108 47.6884 43.5631 49.7745C42.4054 51.1565 40.8852 52.1132 38.9452 52.6753C39.2583 51.85 39.4725 51.0329 39.5947 50.2162C39.6483 49.8592 39.6863 49.4994 39.7046 49.1382C42.2219 47.6875 42.8792 44.9442 43.6981 41.5247C44.2479 39.229 44.8714 36.6266 46.1998 34.2288C47.7091 31.5056 49.9059 29.4585 52.917 27.9707C53.6518 27.6082 54.5673 27.9199 54.9289 28.6523C55.2919 29.3875 54.9806 30.3021 54.2473 30.6647C52.4753 31.5399 51.0764 32.6308 49.97 33.9999C49.6646 34.3771 49.7232 34.9306 50.1009 35.2359C50.4785 35.5408 51.032 35.4822 51.3368 35.105C52.2803 33.9377 53.487 33.0011 55.026 32.2403C56.6075 31.4589 57.2864 29.4896 56.5174 27.8993C56.5132 27.8911 56.5091 27.8824 56.505 27.8737C55.7241 26.293 53.7529 25.6142 52.164 26.3823C52.1553 26.3864 52.1471 26.3905 52.1384 26.3947C48.7958 28.0463 46.3504 30.33 44.6622 33.3765C43.2175 35.9839 42.5647 38.7099 41.9884 41.1154C41.3136 43.9325 40.8508 45.8601 39.6016 47.0389C39.2656 44.7281 38.2521 42.6952 37.3393 40.8705C36.5456 39.2839 35.7912 37.7733 35.5399 36.2563C36.964 35.8727 38.2237 35.3833 39.3453 34.7832C43.5823 32.5154 45.7311 28.6134 45.7311 23.1857C45.7311 20.8777 45.4793 18.6955 44.9872 16.6612C48.5047 11.1411 47.9842 5.4451 47.3465 2.50763C47.0622 1.19751 45.9668 0.222931 44.6219 0.0819397C44.1014 0.0274658 43.5782 0 43.0673 0C38.5011 0 35.566 2.14371 34.4618 3.12469C31.7024 1.75873 28.6135 1.01669 25.486 1.01669C22.3581 1.01669 19.2691 1.75873 16.5102 3.12469C15.4056 2.14371 12.47 0 7.90422 0C7.39336 0 6.87059 0.0274658 6.35011 0.0819397C5.00474 0.222931 3.90977 1.19751 3.6255 2.50763C2.98738 5.4451 2.46736 11.1411 5.98482 16.6612C5.49272 18.6955 5.24095 20.8777 5.24095 23.1862ZM8.56432 5.35767C9.9875 5.47028 11.099 5.91614 11.8547 6.33453C11.722 6.45813 11.592 6.58447 11.4629 6.71219C10.4801 7.68539 9.60161 8.76297 8.84584 9.92157C8.44759 8.21823 8.44072 6.62567 8.56432 5.35767ZM42.1262 9.92157C41.6419 9.17862 41.1095 8.47275 40.5313 7.80487C40.1024 7.30957 39.6483 6.83578 39.1718 6.38626C39.1535 6.36932 39.1356 6.35147 39.1173 6.33453C39.8731 5.9166 40.9845 5.47028 42.4072 5.35812C42.5308 6.62521 42.524 8.21869 42.1262 9.92157ZM43.0678 1.75781C43.5178 1.75781 43.9787 1.78207 44.4388 1.83014C45.0275 1.89194 45.5058 2.314 45.6285 2.88071C46.1554 5.30502 46.5981 9.79248 44.2969 14.3326C44.2598 14.2282 44.0314 13.6583 43.9696 13.4724C43.7709 12.9799 43.5562 12.4988 43.3246 12.0291C44.4264 9.04816 44.3335 6.20956 44.0497 4.32175C43.9856 3.89465 43.6208 3.57788 43.1891 3.57376L43.0921 3.5733C40.5977 3.5733 38.7827 4.42383 37.7014 5.13428C37.1938 4.7438 36.666 4.37759 36.118 4.03748C37.2858 3.14392 39.6488 1.75781 43.0678 1.75781ZM37.2048 6.99051C41.9248 10.9337 43.9733 17.1831 43.9733 23.1857C43.9733 27.9817 42.1884 31.268 38.5163 33.2332C35.1695 35.024 31.1943 35.4218 27.4594 35.5426C27.4292 35.5435 23.5428 35.5435 23.5126 35.5426C19.7763 35.4208 15.8066 35.0262 12.4558 33.2332C8.78358 31.268 6.99876 27.9817 6.99876 23.1857C6.99876 17.6225 8.66777 12.0007 12.6732 7.99301C16.0245 4.63989 20.7601 2.77451 25.486 2.77451C29.7757 2.77451 33.9839 4.29977 37.2048 6.99051ZM5.34303 2.88071C5.46617 2.314 5.94453 1.89194 6.53322 1.83014C6.99327 1.78207 7.45424 1.75781 7.90422 1.75781C11.299 1.75781 13.6734 3.14713 14.849 4.04022C14.3028 4.37988 13.7769 4.74518 13.2706 5.13428C12.1893 4.42383 10.3739 3.5733 7.87996 3.5733L7.78291 3.57376C7.35124 3.57788 6.9864 3.89465 6.92232 4.32175C6.6385 6.20956 6.54558 9.04816 7.64741 12.0291C7.41487 12.5006 7.19926 12.984 7.00014 13.4784C6.92873 13.6551 6.71358 14.2245 6.67512 14.333C4.37395 9.79248 4.8166 5.30502 5.34303 2.88071Z" fill="#219653"/>
</svg>
