<svg width="60" height="65" viewBox="0 0 60 65" fill="none" xmlns="http://www.w3.org/2000/svg">
<circle cx="38" cy="22" r="22" fill="#FFD19B"/>
<path d="M60 11H14V18H7V25H0V59H46V52H53V45H60V11ZM44 57H2V27H7V52H44V57ZM51 50H46H40H34H28H22H16H10H9V49V43V37V31V25V20H14V22V28V34V40V45H19H25H31H37H43H49H51V50ZM58 43H53H16V18V13H58V43Z" fill="#219653"/>
<path d="M34 50C34.5523 50 35 49.5523 35 49C35 48.4477 34.5523 48 34 48C33.4477 48 33 48.4477 33 49C33 49.5523 33.4477 50 34 50Z" fill="#219653"/>
<path d="M37 47C37.5523 47 38 46.5523 38 46C38 45.4477 37.5523 45 37 45C36.4477 45 36 45.4477 36 46C36 46.5523 36.4477 47 37 47Z" fill="#219653"/>
<path d="M40 50C40.5523 50 41 49.5523 41 49C41 48.4477 40.5523 48 40 48C39.4477 48 39 48.4477 39 49C39 49.5523 39.4477 50 40 50Z" fill="#219653"/>
<path d="M46 50C46.5523 50 47 49.5523 47 49C47 48.4477 46.5523 48 46 48C45.4477 48 45 48.4477 45 49C45 49.5523 45.4477 50 46 50Z" fill="#219653"/>
<path d="M43 47C43.5523 47 44 46.5523 44 46C44 45.4477 43.5523 45 43 45C42.4477 45 42 45.4477 42 46C42 46.5523 42.4477 47 43 47Z" fill="#219653"/>
<path d="M49 47C49.5523 47 50 46.5523 50 46C50 45.4477 49.5523 45 49 45C48.4477 45 48 45.4477 48 46C48 46.5523 48.4477 47 49 47Z" fill="#219653"/>
<path d="M28 50C28.5523 50 29 49.5523 29 49C29 48.4477 28.5523 48 28 48C27.4477 48 27 48.4477 27 49C27 49.5523 27.4477 50 28 50Z" fill="#219653"/>
<path d="M31 47C31.5523 47 32 46.5523 32 46C32 45.4477 31.5523 45 31 45C30.4477 45 30 45.4477 30 46C30 46.5523 30.4477 47 31 47Z" fill="#219653"/>
<path d="M10 50C10.5523 50 11 49.5523 11 49C11 48.4477 10.5523 48 10 48C9.44772 48 9 48.4477 9 49C9 49.5523 9.44772 50 10 50Z" fill="#219653"/>
<path d="M10 44C10.5523 44 11 43.5523 11 43C11 42.4477 10.5523 42 10 42C9.44772 42 9 42.4477 9 43C9 43.5523 9.44772 44 10 44Z" fill="#219653"/>
<path d="M13 47C13.5523 47 14 46.5523 14 46C14 45.4477 13.5523 45 13 45C12.4477 45 12 45.4477 12 46C12 46.5523 12.4477 47 13 47Z" fill="#219653"/>
<path d="M13 41C13.5523 41 14 40.5523 14 40C14 39.4477 13.5523 39 13 39C12.4477 39 12 39.4477 12 40C12 40.5523 12.4477 41 13 41Z" fill="#219653"/>
<path d="M16 50C16.5523 50 17 49.5523 17 49C17 48.4477 16.5523 48 16 48C15.4477 48 15 48.4477 15 49C15 49.5523 15.4477 50 16 50Z" fill="#219653"/>
<path d="M22 50C22.5523 50 23 49.5523 23 49C23 48.4477 22.5523 48 22 48C21.4477 48 21 48.4477 21 49C21 49.5523 21.4477 50 22 50Z" fill="#219653"/>
<path d="M19 47C19.5523 47 20 46.5523 20 46C20 45.4477 19.5523 45 19 45C18.4477 45 18 45.4477 18 46C18 46.5523 18.4477 47 19 47Z" fill="#219653"/>
<path d="M25 47C25.5523 47 26 46.5523 26 46C26 45.4477 25.5523 45 25 45C24.4477 45 24 45.4477 24 46C24 46.5523 24.4477 47 25 47Z" fill="#219653"/>
<path d="M10 38C10.5523 38 11 37.5523 11 37C11 36.4477 10.5523 36 10 36C9.44772 36 9 36.4477 9 37C9 37.5523 9.44772 38 10 38Z" fill="#219653"/>
<path d="M10 32C10.5523 32 11 31.5523 11 31C11 30.4477 10.5523 30 10 30C9.44772 30 9 30.4477 9 31C9 31.5523 9.44772 32 10 32Z" fill="#219653"/>
<path d="M13 35C13.5523 35 14 34.5523 14 34C14 33.4477 13.5523 33 13 33C12.4477 33 12 33.4477 12 34C12 34.5523 12.4477 35 13 35Z" fill="#219653"/>
<path d="M13 29C13.5523 29 14 28.5523 14 28C14 27.4477 13.5523 27 13 27C12.4477 27 12 27.4477 12 28C12 28.5523 12.4477 29 13 29Z" fill="#219653"/>
<path d="M10 26C10.5523 26 11 25.5523 11 25C11 24.4477 10.5523 24 10 24C9.44772 24 9 24.4477 9 25C9 25.5523 9.44772 26 10 26Z" fill="#219653"/>
<path d="M13 23C13.5523 23 14 22.5523 14 22C14 21.4477 13.5523 21 13 21C12.4477 21 12 21.4477 12 22C12 22.5523 12.4477 23 13 23Z" fill="#219653"/>
</svg>
