<svg width="61" height="73" viewBox="0 0 61 73" fill="none" xmlns="http://www.w3.org/2000/svg">
<circle cx="38" cy="22" r="22" fill="#FFD19B"/>
<g clip-path="url(#clip0)">
<path fill-rule="evenodd" clip-rule="evenodd" d="M43.1247 68.4111C42.5285 70.1768 41.2738 71.5334 39.7278 72.2989C38.2432 73.0343 36.4891 73.2246 34.79 72.7099L9.95057 64.3263C8.18487 63.7302 6.82825 62.4755 6.06221 60.9294C5.29757 59.3848 5.12212 57.5488 5.71735 55.7868L15.5325 26.7176C16.0151 25.2883 16.938 24.0853 18.1955 23.2532L29.9988 13.4218C30.7602 12.7553 32.0316 12.2555 33.0243 12.0908C34.1133 11.9093 35.2317 12.0014 36.2751 12.3528L45.1487 15.3299C46.3317 15.7297 47.3309 16.4245 48.0914 17.3041C48.8667 18.2014 49.3945 19.2918 49.617 20.4571L53.0441 35.4343C53.22 36.0822 53.2931 36.7402 53.2731 37.3908C53.2521 38.0675 53.1321 38.7237 52.9231 39.3404L51.3603 43.9729C52.3777 44.3163 53.4671 44.6226 54.6395 44.8837C55.2822 45.0256 55.688 45.6613 55.5456 46.304C55.4041 46.9467 54.7679 47.353 54.1252 47.2111C52.8677 46.9309 51.6954 46.6023 50.5985 46.2338L43.1247 68.4111ZM23.5168 53.6586C23.5168 53.1132 23.2236 52.7018 22.7075 52.5272L16.5042 50.4395C15.8797 50.2305 15.2039 50.5675 14.9945 51.192C14.7855 51.8161 15.1225 52.4923 15.747 52.7013L21.9154 54.7774C22.0433 54.8244 22.1816 54.85 22.3254 54.85C22.9834 54.85 23.5168 54.2497 23.5168 53.6586ZM31.5774 55.5127C30.8379 55.2963 30.0495 55.8976 30.0495 56.6595C30.0495 57.1923 30.318 57.5823 30.8146 57.7727C30.8411 57.7815 30.8667 57.7913 30.8937 57.7997L37.016 59.86C37.6405 60.0689 38.3167 59.7324 38.5257 59.1079C38.7347 58.4833 38.3977 57.8071 37.7732 57.5981L31.5774 55.5127ZM26.7554 53.9811C26.0978 53.9811 25.564 54.5145 25.564 55.1725C25.564 55.8306 26.0978 56.3639 26.7554 56.3639C27.4135 56.3639 27.9469 55.8306 27.9469 55.1725C27.9469 54.5145 27.4135 53.9811 26.7554 53.9811ZM35.119 26.8623C35.1321 26.2042 35.6761 25.6811 36.3342 25.6942C36.9922 25.7067 37.5153 26.2508 37.5023 26.9088C37.5023 26.9223 37.4525 28.4009 37.9831 30.5268C38.0194 30.51 38.0547 30.4933 38.0901 30.4756C39.0088 30.0209 39.7534 29.2162 40.1066 28.1705C40.4613 27.121 40.3566 26.0264 39.9009 25.1059C39.4458 24.1872 38.6416 23.4426 37.5958 23.0894C36.5459 22.7347 35.4518 22.8394 34.5312 23.2955C33.6126 23.7502 32.8679 24.5544 32.5147 25.6006C32.1601 26.6505 32.2648 27.7447 32.7204 28.6652C33.1755 29.5839 33.9797 30.3285 35.0255 30.6818C35.2214 30.7478 35.4187 30.7976 35.6161 30.8325C35.0655 28.494 35.1186 26.8767 35.119 26.8623ZM38.7188 32.8086C40.0876 36.2455 42.9898 40.4187 49.1334 43.1133L50.6613 38.5739C50.7981 38.1699 50.8768 37.7497 50.8898 37.3252C50.9019 36.9124 50.853 36.4838 50.7358 36.0515L47.29 20.99C47.1452 20.1918 46.8195 19.4807 46.2875 18.8655C45.7965 18.2972 45.1529 17.8491 44.3915 17.5917L35.5183 14.6146C34.8426 14.387 34.1166 14.3279 33.4073 14.4456C33.2314 14.475 31.8934 14.9771 31.4838 15.2852L19.547 25.219C18.7274 25.7505 18.1066 26.5495 17.7943 27.4747L7.9787 56.544C7.59382 57.6842 7.70784 58.8733 8.20255 59.873C8.6968 60.8713 9.57081 61.6806 10.7073 62.0645L35.3424 70.3825C36.4826 70.7673 37.6717 70.6538 38.6718 70.1586C39.6692 69.6644 40.4785 68.7913 40.8624 67.6553L48.3669 45.3863C41.1366 42.2933 37.849 37.3029 36.3556 33.2805C33.9253 33.2973 31.6709 31.9239 30.58 29.7212C29.0135 26.5575 30.312 22.7212 33.4748 21.1552C36.6385 19.5887 40.4748 20.8871 42.0408 24.0499C42.7664 25.515 42.9325 27.2565 42.3685 28.9277C41.803 30.6031 40.613 31.8899 39.1461 32.6159C39.0065 32.6853 38.864 32.7495 38.7188 32.8086ZM20.1064 39.7899L41.3758 46.9486C42.0003 47.1576 42.6761 46.8206 42.885 46.1961C43.094 45.5715 42.7575 44.8958 42.1325 44.6868L20.8636 37.5281C20.239 37.3192 19.5633 37.6557 19.3543 38.2802C19.1453 38.9048 19.4818 39.581 20.1064 39.7899ZM17.9265 46.2454L39.1959 53.404C39.8204 53.6135 40.4962 53.2765 40.7051 52.652C40.9141 52.0274 40.5772 51.3517 39.9526 51.1427L18.6837 43.984C18.0591 43.7746 17.3834 44.1116 17.1744 44.7361C16.9654 45.3607 17.3019 46.0364 17.9265 46.2454Z" fill="#219653"/>
</g>
<defs>
<clipPath id="clip0">
<rect width="61" height="61" fill="white" transform="translate(0 12)"/>
</clipPath>
</defs>
</svg>
