<svg width="64" height="63" viewBox="0 0 64 63" fill="none" xmlns="http://www.w3.org/2000/svg">
<circle r="22" transform="matrix(-1 0 0 1 42 41)" fill="#FFD19B"/>
<path d="M5.66406 43.7266C6.28932 43.7266 6.79688 43.219 6.79688 42.5938C6.79688 41.9685 6.28932 41.4609 5.66406 41.4609C5.0388 41.4609 4.53125 41.9685 4.53125 42.5938C4.53125 43.219 5.0388 43.7266 5.66406 43.7266Z" fill="#219653"/>
<path d="M5.66406 39.1953C6.28976 39.1953 6.79688 38.6882 6.79688 38.0625V29C6.79688 28.3743 6.28976 27.8672 5.66406 27.8672C5.03836 27.8672 4.53125 28.3743 4.53125 29V38.0625C4.53125 38.6882 5.03836 39.1953 5.66406 39.1953Z" fill="#219653"/>
<path d="M1.13281 41.4609H2.26562V56.8672C2.26562 57.4929 2.77274 58 3.39844 58H54.6016C56.4756 58 58 56.4756 58 54.6016V12.4609C58 11.8352 57.4929 11.3281 56.8672 11.3281H48.2578V10.1953C48.2578 4.57373 43.6841 0 38.0625 0C32.4515 0 27.8672 4.53966 27.8672 10.1953V11.3281H19.2578C18.6321 11.3281 18.125 11.8352 18.125 12.4609V24.471C17.0152 25.3064 16.2497 26.5229 15.9735 27.8743C15.9355 27.8703 15.8974 27.8672 15.8594 27.8672C15.8213 27.8672 15.7837 27.8698 15.7461 27.8707C15.2213 25.2869 12.9318 23.3359 10.1953 23.3359C7.07211 23.3359 4.53125 25.8768 4.53125 29C4.53125 30.274 4.95428 31.451 5.66716 32.3984H1.13281C0.507111 32.3984 0 32.9055 0 33.5312V40.3281C0 40.9538 0.507111 41.4609 1.13281 41.4609ZM4.53125 41.4609H10.1953V55.7344H4.53125V41.4609ZM12.4609 41.4609H19.2578V55.7344H12.4609V41.4609ZM27.1875 55.7344C24.7577 55.7344 24.1785 55.7344 21.5234 55.7344V41.4609H27.1875V55.7344ZM21.5234 39.1953V34.6641H29.4531V39.1953H21.5234ZM21.5234 32.3984C21.4845 32.3984 21.446 32.3962 21.4075 32.3949C21.2407 31.5749 20.8951 30.8036 20.3906 30.1328V25.7967C20.753 25.6688 21.1358 25.6016 21.5234 25.6016C23.3974 25.6016 24.9219 27.126 24.9219 29C24.9219 30.874 23.3974 32.3984 21.5234 32.3984ZM15.7934 30.1333L16.774 30.2572C17.8201 30.5488 18.6896 31.3417 19.064 32.3984H12.6583C13.1251 31.09 14.3513 30.1607 15.7934 30.1333ZM19.2578 34.6641V39.1953H12.4609V34.6641H19.2578ZM54.6016 55.7344H29.4531V51.2031H55.7344V54.6016C55.7344 55.2264 55.2264 55.7344 54.6016 55.7344ZM30.1328 10.1953C30.1328 5.82159 33.6724 2.26562 38.0625 2.26562C42.4349 2.26562 45.9922 5.82292 45.9922 10.1953V11.3281H30.1328V10.1953ZM27.8672 13.5938V18.8047H26.7344C26.1087 18.8047 25.6016 19.3118 25.6016 19.9375C25.6016 20.5632 26.1087 21.0703 26.7344 21.0703H31.2656C31.8913 21.0703 32.3984 20.5632 32.3984 19.9375C32.3984 19.3118 31.8913 18.8047 31.2656 18.8047H30.1328V13.5938H45.9922V18.8047H44.8594C44.2337 18.8047 43.7266 19.3118 43.7266 19.9375C43.7266 20.5632 44.2337 21.0703 44.8594 21.0703H49.3906C50.0163 21.0703 50.5234 20.5632 50.5234 19.9375C50.5234 19.3118 50.0163 18.8047 49.3906 18.8047H48.2578V13.5938H55.7344V48.9375H29.4531V41.4609H30.5859C31.2116 41.4609 31.7188 40.9538 31.7188 40.3281V33.5312C31.7188 32.9055 31.2116 32.3984 30.5859 32.3984H26.0516C26.7645 31.451 27.1875 30.274 27.1875 29C27.1875 25.8768 24.6466 23.3359 21.5234 23.3359C21.1416 23.3359 20.7623 23.3753 20.3906 23.451V13.5938H27.8672ZM6.79688 29C6.79688 27.126 8.3213 25.6016 10.1953 25.6016C11.8529 25.6016 13.2366 26.795 13.534 28.3677C11.887 29.1133 10.6803 30.6213 10.3126 32.3949C10.2736 32.3962 10.2347 32.3984 10.1953 32.3984C8.3213 32.3984 6.79688 30.874 6.79688 29ZM2.26562 34.6641H10.1953V39.1953H2.26562V34.6641Z" fill="#219653"/>
</svg>
